<svg width="45" height="32" viewBox="0 0 95 32" fill="none" xmlns="http://www.w3.org/2000/svg">
<g clip-path="url(#clip0_45_78)">
<path d="M36.7982 27.6029C33.3005 25.3498 28.5536 24.9544 20.8981 27.0783C12.7369 28.9961 10.0159 30.2255 6.44233 27.7576C5.06946 26.5452 4.57725 24.5932 4.94479 21.7814C5.79726 17.1977 8.10096 12.7867 12.1929 7.89373C14.477 5.34844 16.5956 3.16412 19.3933 2.28698C21.5374 1.73673 21.337 3.4218 21.0775 3.66279C20.8038 3.66279 20.3439 3.70591 19.9884 3.93786C19.7 4.16158 18.9081 4.88397 18.8656 5.85569C18.8043 7.34324 20.3438 7.03363 21.0077 6.21689C21.7234 5.29651 22.7812 3.53401 21.9492 1.89136C21.6004 1.30668 20.9979 0.902596 20.2498 0.765004C17.688 0.618599 15.3022 1.83978 13.1003 3.18985C8.28497 6.53496 4.43296 11.1701 2.25334 16.2437C0.996675 19.305 -0.139785 23.6901 1.56373 27.2591C2.88149 29.7356 5.61736 31.051 8.8814 30.7759C11.1706 30.5354 13.9388 29.7955 15.8006 29.3488C17.6624 28.9013 27.1927 25.6253 30.3241 31.327C30.3241 31.327 31.3654 29.3056 33.9676 29.2625C36.1071 29.0651 39.1935 29.8819 41.4411 31.5326C40.6923 30.4065 38.5693 28.7468 36.7982 27.6029Z" fill="#555555"/>
<path d="M21.8695 8.46975C20.087 7.30027 16.5044 9.53606 13.635 13.3711C11.011 16.8112 9.8779 20.8093 11.111 22.6582C12.9453 24.8337 16.3504 21.6693 17.7985 19.9755L17.9853 19.7776C18.9701 18.7198 19.7309 17.4471 20.4672 16.2259C20.4672 16.2259 21.144 15.108 21.1764 15.0563C21.5947 14.9792 22.0985 14.8588 22.6663 14.6953C22.6582 14.7209 20.494 18.3585 20.7148 20.164C20.7836 20.7149 20.731 22.727 22.6956 23.3375C25.314 23.7763 27.4048 21.7466 29.2493 19.9408C29.2493 19.9408 29.5636 19.6401 29.7414 19.4684C29.6964 19.6485 29.6378 19.8888 29.6378 19.8888C28.8712 22.5547 29.9045 23.114 30.5509 23.3204C32.5043 23.8883 34.838 21.0503 34.8455 21.0503C34.785 21.9443 34.608 22.6838 35.5504 23.2772C36.4398 23.5956 37.34 23.1102 38.0242 22.6544C40.4888 20.9174 42.4743 18.1988 44.0781 15.8488H43.0551C43.043 15.8488 40.5308 19.4899 38.8996 20.2813C38.897 20.2813 38.6002 20.4337 38.4291 20.3131C38.2174 20.1324 38.3009 19.7569 38.4317 19.4909C38.4399 19.4735 44.7301 8.56387 44.7301 8.56387H41.7601C41.7601 8.56387 41.4357 9.08874 41.4093 9.12317C41.3893 9.10601 41.3417 9.01577 41.3087 8.97253C39.4686 6.42725 35.3017 10.3423 32.1646 14.8825C30.9568 16.6283 29.4191 18.594 27.8246 20.0128C27.8246 20.0128 25.4625 22.1781 24.4532 20.6224C24.0843 19.9687 24.1978 19.0131 24.4058 18.3855C25.581 15.0404 27.6058 12.0046 29.91 10.1728C30.5605 9.66578 31.2675 9.51914 31.6184 9.73417C31.9526 9.93227 32.0066 10.422 31.7951 10.7574C31.2584 10.7403 30.8285 10.9034 30.479 11.2646C29.7904 11.987 29.5512 12.6836 29.7701 13.3373C30.8336 14.8507 32.9546 11.8581 32.852 10.035C32.8153 9.38143 32.4666 8.76244 31.9462 8.46117C31.1706 7.99705 29.9873 8.11725 29.2216 8.48726C28.1965 8.87407 26.5738 10.224 25.6267 11.2733C24.4343 12.5891 22.3893 14.0508 21.7498 13.8872C21.9593 13.328 23.6866 9.79386 21.8695 8.46975ZM36.1882 13.698C36.7659 12.8984 38.4475 10.7571 38.8574 10.396C40.2362 9.18309 40.7872 9.71678 40.8349 10.0949C39.5482 12.3994 38.0295 15.0395 36.6016 17.413C36.6046 17.4045 36.1548 18.0923 36.1548 18.0923C35.5242 19.0552 34.8892 19.8807 33.8534 20.4568C33.7057 20.5001 33.4623 20.5173 33.3002 20.3965C33.1052 20.2675 33.0282 20.0525 33.0502 19.8288C33.1122 19.0895 33.8651 16.8283 36.1882 13.698ZM20.0313 15.0824C20.0313 15.0824 20.0055 15.16 19.9927 15.1854C19.9894 15.1854 18.6978 17.292 18.6978 17.292C17.9183 18.3327 16.9451 19.6401 15.7285 20.2675C15.3679 20.388 14.8694 20.4655 14.6154 20.1476C14.0769 19.5025 14.3544 18.6082 14.5799 17.8859L14.6597 17.6279C15.3062 15.8739 16.332 14.3257 17.3304 12.8896C17.3428 12.8811 17.3708 12.8726 17.3809 12.8726C17.3832 12.8811 17.3872 12.8811 17.389 12.8984C18.0155 14.1021 19.1903 14.6608 20.0688 14.9192C20.0741 14.9192 20.0797 14.9277 20.0797 14.945C20.0799 14.9706 20.0655 15.0053 20.0313 15.0824ZM21.255 12.5975C21.2493 12.6146 20.6797 13.9216 20.6797 13.9216C20.5973 13.9903 20.4671 13.956 20.3179 13.9216L20.0622 13.8784C19.2594 13.6291 18.6538 13.0959 18.467 12.4597C18.2095 11.2213 19.2673 10.2496 19.7335 9.89726C20.1807 9.58741 20.8759 9.42409 21.2796 9.74239C21.5286 10.0348 21.623 10.413 21.623 10.8261C21.6231 11.3849 21.4506 12.0126 21.255 12.5975Z" fill="#555555"/>
<path d="M58.8011 16.5873C58.5147 15.9683 57.8349 15.5727 57.1104 15.6156C54.7577 15.8307 52.4564 17.7655 51.2482 20.5428C50.6141 21.9704 50.2681 23.1484 50.0412 25.023C50.7728 24.1805 52.265 22.7961 53.9584 22.0393C53.9584 22.0393 54.1889 20.2421 55.3639 18.6426C55.8085 17.9803 56.6983 16.9141 57.6974 17.1977C58.5703 17.4903 58.2635 19.9067 57.1033 22.2451C56.2449 23.9652 54.9312 25.6855 53.6021 26.8719C52.4269 27.8695 50.6883 29.0733 49.1671 28.1447C48.209 27.5774 47.7204 26.3904 47.8236 24.8598C48.2814 20.5173 50.2581 16.8196 53.0869 12.606C56.0038 8.6934 59.219 4.67761 63.5504 2.53605C64.4339 2.08896 65.2521 1.9858 65.9593 2.26098C65.9593 2.26098 61.8933 4.49677 59.9552 8.63313C59.4621 9.6824 58.7764 11.1009 59.467 12.3565C59.8278 13.0099 60.4685 13.0616 60.9844 13.0272C63.3601 12.4767 64.895 10.2582 66.1491 8.22893C66.8761 6.68968 67.5224 5.159 67.5224 3.45631C67.5224 3.24998 67.5117 2.97491 67.4942 2.76835C68.6292 2.16663 70.9567 3.23271 70.9567 3.23271C72.7755 3.8349 76.6482 6.80177 77.9545 7.36906C78.5917 6.62963 79.6389 5.51186 80.2285 4.95279L79.375 4.42815C78.0085 3.59402 76.564 2.80278 75.1423 2.02034C71.9135 0.257725 69.2854 0.876715 67.9478 1.35835C67.4221 1.54741 66.9416 1.71085 66.9416 1.71085C65.949 0.62738 64.321 0.73031 63.1214 1.02289C58.8075 2.2611 54.8023 5.27932 50.5083 10.5164C47.3513 14.6183 45.393 18.1613 44.3493 21.6611C43.5448 24.017 43.3002 27.4826 45.2639 29.5379C46.9335 31.283 49.1473 30.905 50.7106 30.2774C54.0978 28.6092 57.1421 25.0145 58.659 20.8783C59.025 19.6487 59.4313 17.9117 58.8011 16.5873ZM66.5897 3.62845C66.1413 8.77084 62.1441 11.7894 61.1551 12.0298C60.5557 12.15 59.533 11.8836 60.446 9.72552C61.7905 6.81869 64.086 4.35096 66.5489 3.08677C66.6088 3.3018 66.6073 3.43904 66.5897 3.62845Z" fill="#555555"/>
<path d="M90.3011 4.28179C88.151 5.50309 85.9221 6.29398 83.224 6.01891C82.4762 6.86186 81.7482 7.7303 81.0771 8.62447C84.8641 9.58762 88.8788 7.44642 91.1178 5.40862C93.4863 3.35331 94.7009 0.765137 94.7009 0.765137C94.7009 0.765137 92.9255 2.79436 90.3011 4.28179Z" fill="#555555"/>
<path d="M48.0748 11.1491L49.6663 8.56409H46.8458L45.2549 11.1491H48.0748Z" fill="#555555"/>
<path d="M83.2125 27.8424C82.9093 28.0487 82.4832 27.8901 82.6425 27.4172C83.0393 26.2133 84.6169 23.7599 84.6169 23.7599L89.0109 15.9666H86.001C85.858 16.2016 85.5521 16.7413 85.5521 16.7413C85.4128 16.5094 84.9964 15.9935 84.825 15.8821C84.0897 15.4174 83.0108 15.6372 82.2665 16.0584C79.0307 17.9505 76.6698 21.6888 74.8079 24.6041C74.8079 24.6041 72.8478 27.8447 71.7598 28.0857C70.9104 28.1546 70.998 27.0103 71.0348 26.7437C71.3632 24.8172 72.1259 22.9857 72.8944 21.326C74.4572 20.2426 76.2409 18.8238 77.8618 17.2674C81.3795 13.9047 84.3451 10.0953 84.7786 9.24394C84.7786 9.24394 84.3094 9.33865 83.7554 9.35568C81.0491 13.1308 75.5111 18.6173 73.8321 19.4341C74.5759 17.6451 79.3813 9.10623 83.4707 5.02169L84.1142 4.40235C85.1092 3.43063 86.1403 2.43317 86.9437 2.26973C87.0286 2.26115 87.1378 2.26973 87.2322 2.46783C87.268 3.22441 86.9864 3.78348 86.6633 4.41974L86.2104 5.34858C86.2104 5.34858 86.8518 5.22814 87.2731 5.0902C87.7619 4.17052 88.3032 3.13829 88.1037 1.90888C88.0371 1.51326 87.7507 1.21234 87.3765 1.14349C86.1566 0.911309 84.8271 1.81394 83.7574 2.54515L83.7141 2.57076C78.215 6.87902 73.5714 13.0878 69.5117 21.5667C69.2174 21.7899 68.0806 22.0568 67.8873 21.9276C68.2883 21.1023 68.793 19.9928 69.0457 18.7889C69.0894 18.4448 69.13 18.0924 69.13 17.7485C69.13 17.0084 68.9524 16.3121 68.2893 15.8307C67.5119 15.4436 66.5511 15.6243 65.9034 15.9166C63.0013 17.1205 60.8324 20.096 59.2673 22.5465C58.4255 24.1034 57.5862 25.7708 57.3538 27.6802C57.1901 29.1762 57.5234 30.1394 58.374 30.6211C59.2487 31.068 60.3497 30.6035 60.7822 30.3801C63.7222 28.8323 65.7763 25.7282 67.3956 22.8902C67.46 22.8817 68.3441 22.8561 69.0128 22.6839C69.0217 22.6839 69.0254 22.6839 69.0403 22.6929C69.0019 22.8213 68.6564 23.8536 68.6564 23.8536C67.6301 26.8631 67.1556 28.91 68.1249 30.1222C69.5101 31.8336 71.8034 30.0623 73.6689 27.7229C73.2685 30.5262 74.7214 30.9649 75.8288 30.7501C77.101 30.4063 78.5186 29.0473 79.1765 28.351C78.9652 29.1678 79.0227 30.6298 80.18 30.7759C80.9732 30.9225 81.5668 30.491 82.2537 30.1212C84.7176 28.7795 87.6669 24.309 88.4327 23.0165H87.4287C86.3401 24.6616 84.9549 26.8186 83.2125 27.8424ZM61.0969 27.543C60.9406 27.3108 60.8888 27.0569 60.8836 26.7824C60.8537 25.0963 62.6678 22.0766 63.9483 20.4316C63.951 20.4316 63.951 20.4316 63.951 20.4316C64.4876 21.6066 65.7028 22.3619 66.4363 22.6802C65.5252 24.7098 62.4006 29.0564 61.0969 27.543ZM66.9505 21.7729C66.8637 21.8334 65.3314 21.3172 65.0353 19.8984C64.7841 18.6769 65.6252 17.7224 66.439 17.2413C66.7884 16.966 67.3145 16.8716 67.7005 17.0086C68.0588 17.2497 68.1558 17.68 68.1558 18.1437C68.1558 18.428 68.1181 18.7201 68.0849 18.9866C68.0849 18.9866 68.0785 19.0384 68.0775 19.047C67.8221 20.0012 67.4314 20.9386 66.9505 21.7729ZM79.2405 27.0013L78.9499 27.2592C78.5365 27.6287 78.1111 28.0244 77.5977 27.8265C77.4558 27.7749 77.3561 27.586 77.3321 27.4393C77.3087 26.3816 77.7851 25.4015 78.247 24.4472L78.3654 24.1976C79.6941 21.9791 81.2385 19.365 83.5067 17.5508C83.889 17.275 84.3037 17.0433 84.7415 17.224C84.8422 17.3183 84.9595 17.4819 84.9595 17.6451C84.9595 17.6969 84.9136 17.8344 84.887 17.8772C84.2536 18.901 83.6502 19.9757 83.0635 21.0075C81.917 23.0457 80.7275 25.1522 79.2405 27.0013Z" fill="#555555"/>
</g>
<defs>
<clipPath id="clip0_45_78">
<rect width="95" height="32" fill="white"/>
</clipPath>
</defs>
</svg>
